<?xml version="1.0" encoding="UTF-8" standalone="no"?>
<!-- Created with Inkscape (http://www.inkscape.org/) -->

<svg
   xmlns:dc="http://purl.org/dc/elements/1.1/"
   xmlns:cc="http://creativecommons.org/ns#"
   xmlns:rdf="http://www.w3.org/1999/02/22-rdf-syntax-ns#"
   xmlns:svg="http://www.w3.org/2000/svg"
   xmlns="http://www.w3.org/2000/svg"
   xmlns:xlink="http://www.w3.org/1999/xlink"
   xmlns:sodipodi="http://sodipodi.sourceforge.net/DTD/sodipodi-0.dtd"
   xmlns:inkscape="http://www.inkscape.org/namespaces/inkscape"
   width="912.29346"
   height="712.09052"
   id="svg2"
   version="1.1"
   inkscape:version="0.47pre4 r22446"
   sodipodi:docname="Background.svg"
   inkscape:export-filename="/home/richie/dunelegacy/MacOSX/Background.png"
   inkscape:export-xdpi="91"
   inkscape:export-ydpi="91">
  <defs
     id="defs4">
    <linearGradient
       id="linearGradient7785">
      <stop
         id="stop7787"
         offset="0"
         style="stop-color:#000066;stop-opacity:1;" />
      <stop
         style="stop-color:#4646ff;stop-opacity:1;"
         offset="0.5"
         id="stop7791" />
      <stop
         id="stop7789"
         offset="1"
         style="stop-color:#000060;stop-opacity:1;" />
    </linearGradient>
    <inkscape:path-effect
       fuse_tolerance="0"
       vertical_pattern="false"
       prop_units="false"
       tang_offset="0"
       normal_offset="0"
       spacing="0"
       scale_y_rel="false"
       prop_scale="1"
       copytype="single_stretched"
       pattern="m 263.06095,595.90935 0,10 10,-5 z"
       is_visible="true"
       id="path-effect7140"
       effect="skeletal" />
    <inkscape:path-effect
       effect="spiro"
       id="path-effect7138"
       is_visible="true" />
    <inkscape:path-effect
       effect="skeletal"
       id="path-effect7134"
       is_visible="true"
       pattern="m 294.37568,518.1276 0,10 10,-5 z"
       copytype="single_stretched"
       prop_scale="1"
       scale_y_rel="false"
       spacing="0"
       normal_offset="0"
       tang_offset="0"
       prop_units="false"
       vertical_pattern="false"
       fuse_tolerance="0" />
    <inkscape:path-effect
       is_visible="true"
       id="path-effect7132"
       effect="spiro" />
    <inkscape:path-effect
       fuse_tolerance="0"
       vertical_pattern="false"
       prop_units="false"
       tang_offset="0"
       normal_offset="0"
       spacing="0"
       scale_y_rel="false"
       prop_scale="1"
       copytype="single_stretched"
       pattern="m 178.20814,585.80783 0,10 10,-5 z"
       is_visible="true"
       id="path-effect7128"
       effect="skeletal" />
    <inkscape:path-effect
       effect="spiro"
       id="path-effect7126"
       is_visible="true" />
    <inkscape:path-effect
       effect="skeletal"
       id="path-effect7122"
       is_visible="true"
       pattern="m 135.78174,533.27989 0,10 10,-5 z"
       copytype="single_stretched"
       prop_scale="1"
       scale_y_rel="false"
       spacing="0"
       normal_offset="0"
       tang_offset="0"
       prop_units="false"
       vertical_pattern="false"
       fuse_tolerance="0" />
    <inkscape:path-effect
       is_visible="true"
       id="path-effect7120"
       effect="spiro" />
    <inkscape:path-effect
       fuse_tolerance="0"
       vertical_pattern="false"
       prop_units="false"
       tang_offset="0"
       normal_offset="0"
       spacing="0"
       scale_y_rel="false"
       prop_scale="1"
       copytype="single_stretched"
       pattern="m 163.05586,457.51845 0,10 10,-5 z"
       is_visible="true"
       id="path-effect7116"
       effect="skeletal" />
    <inkscape:path-effect
       effect="spiro"
       id="path-effect7114"
       is_visible="true" />
    <inkscape:path-effect
       effect="skeletal"
       id="path-effect7110"
       is_visible="true"
       pattern="m 120.22845,323.24881 0,10 10,-5 z"
       copytype="single_stretched"
       prop_scale="1"
       scale_y_rel="false"
       spacing="0"
       normal_offset="0"
       tang_offset="0"
       prop_units="false"
       vertical_pattern="false"
       fuse_tolerance="0" />
    <inkscape:path-effect
       effect="skeletal"
       id="path-effect7107"
       is_visible="true"
       pattern="m 147.50257,369.71583 0,10 10,-5 z"
       copytype="single_stretched"
       prop_scale="1"
       scale_y_rel="false"
       spacing="0"
       normal_offset="0"
       tang_offset="0"
       prop_units="false"
       vertical_pattern="false"
       fuse_tolerance="0" />
    <inkscape:path-effect
       is_visible="true"
       id="path-effect7105"
       effect="spiro" />
    <inkscape:path-effect
       effect="spiro"
       id="path-effect7102"
       is_visible="true" />
    <inkscape:path-effect
       fuse_tolerance="0"
       vertical_pattern="false"
       prop_units="false"
       tang_offset="0"
       normal_offset="0"
       spacing="0"
       scale_y_rel="false"
       prop_scale="1"
       copytype="single_stretched"
       pattern="m 151.54318,484.87322 0,10 10,-5 z"
       is_visible="true"
       id="path-effect6479"
       effect="skeletal" />
    <inkscape:path-effect
       is_visible="true"
       id="path-effect6477"
       effect="spiro" />
    <inkscape:path-effect
       fuse_tolerance="0"
       vertical_pattern="false"
       prop_units="false"
       tang_offset="0"
       normal_offset="0"
       spacing="0"
       scale_y_rel="false"
       prop_scale="1"
       copytype="single_stretched"
       pattern="m 120.22845,323.24881 0,10 10,-5 z"
       is_visible="true"
       id="path-effect6475"
       effect="skeletal" />
    <inkscape:path-effect
       is_visible="true"
       id="path-effect6473"
       effect="spiro" />
    <inkscape:path-effect
       fuse_tolerance="0"
       vertical_pattern="false"
       prop_units="false"
       tang_offset="0"
       normal_offset="0"
       spacing="0"
       scale_y_rel="false"
       prop_scale="1"
       copytype="single_stretched"
       pattern="m 107.50257,383.71583 0,10 10,-5 z"
       is_visible="true"
       id="path-effect6465"
       effect="skeletal" />
    <inkscape:path-effect
       is_visible="true"
       id="path-effect6463"
       effect="spiro" />
    <inkscape:path-effect
       effect="skeletal"
       id="path-effect6371"
       is_visible="true"
       pattern="m 246.89852,464.58952 0,10 10,-5 z"
       copytype="single_stretched"
       prop_scale="1"
       scale_y_rel="false"
       spacing="0"
       normal_offset="0"
       tang_offset="0"
       prop_units="false"
       vertical_pattern="false"
       fuse_tolerance="0" />
    <inkscape:path-effect
       effect="spiro"
       id="path-effect6369"
       is_visible="true" />
    <inkscape:path-effect
       effect="skeletal"
       id="path-effect6365"
       is_visible="true"
       pattern="M 0,0 0,10 10,5 z"
       copytype="single_stretched"
       prop_scale="1"
       scale_y_rel="false"
       spacing="0"
       normal_offset="0"
       tang_offset="0"
       prop_units="false"
       vertical_pattern="false"
       fuse_tolerance="0" />
    <inkscape:path-effect
       effect="spiro"
       id="path-effect6363"
       is_visible="true" />
    <inkscape:path-effect
       effect="skeletal"
       id="path-effect6331"
       is_visible="true"
       pattern="M 0,0 0,10 10,5 z"
       copytype="single_stretched"
       prop_scale="1"
       scale_y_rel="false"
       spacing="0"
       normal_offset="0"
       tang_offset="0"
       prop_units="false"
       vertical_pattern="false"
       fuse_tolerance="0" />
    <inkscape:path-effect
       effect="spiro"
       id="path-effect6329"
       is_visible="true" />
    <inkscape:path-effect
       effect="skeletal"
       id="path-effect6318"
       is_visible="true"
       pattern="m -220.21326,-104.26249 c -8.85315,15.589252 -63.56031,0.45229 -81.48758,0.57986 -17.92726,0.12757 -72.41346,16.041538 -81.48757,0.57985 -9.07411,-15.46168 31.38846,-55.27098 40.24162,-70.86024 8.85315,-15.58925 22.31435,-70.73267 40.24161,-70.86024 17.92727,-0.12756 32.17185,54.8187 41.24596,70.28039 9.07412,15.46168 50.09912,54.69113 41.24596,70.28038 z"
       copytype="single_stretched"
       prop_scale="1"
       scale_y_rel="false"
       spacing="0"
       normal_offset="0"
       tang_offset="0"
       prop_units="false"
       vertical_pattern="false"
       fuse_tolerance="0" />
    <inkscape:path-effect
       effect="spiro"
       id="path-effect6316"
       is_visible="true" />
    <inkscape:path-effect
       effect="skeletal"
       id="path-effect6279"
       is_visible="true"
       pattern="m -220.21326,-104.26249 -81.48758,0.57986 -81.48757,0.57985 40.24162,-70.86024 40.24161,-70.86024 41.24596,70.28039 41.24596,70.28038 z"
       copytype="single_stretched"
       prop_scale="1"
       scale_y_rel="false"
       spacing="0"
       normal_offset="0"
       tang_offset="0"
       prop_units="false"
       vertical_pattern="false"
       fuse_tolerance="0" />
    <inkscape:path-effect
       effect="spiro"
       id="path-effect6277"
       is_visible="true" />
    <inkscape:path-effect
       effect="skeletal"
       id="path-effect6253"
       is_visible="true"
       pattern="m -220.21326,-104.26249 -81.48758,0.57986 -81.48757,0.57985 40.24162,-70.86024 40.24161,-70.86024 41.24596,70.28039 41.24596,70.28038 z"
       copytype="single_stretched"
       prop_scale="1"
       scale_y_rel="false"
       spacing="0"
       normal_offset="0"
       tang_offset="0"
       prop_units="false"
       vertical_pattern="false"
       fuse_tolerance="0" />
    <inkscape:path-effect
       effect="spiro"
       id="path-effect6251"
       is_visible="true" />
    <inkscape:path-effect
       effect="skeletal"
       id="path-effect6240"
       is_visible="true"
       pattern="m -220.21326,-104.26249 -81.48758,0.57986 -81.48757,0.57985 40.24162,-70.86024 40.24161,-70.86024 41.24596,70.28039 41.24596,70.28038 z"
       copytype="single_stretched"
       prop_scale="1"
       scale_y_rel="false"
       spacing="0"
       normal_offset="0"
       tang_offset="0"
       prop_units="false"
       vertical_pattern="false"
       fuse_tolerance="0" />
    <inkscape:path-effect
       effect="spiro"
       id="path-effect6238"
       is_visible="true" />
    <inkscape:path-effect
       effect="skeletal"
       id="path-effect6214"
       is_visible="true"
       pattern="m -54.548243,-268.91735 -81.487577,0.57986 -81.48757,0.57985 40.24162,-70.86024 40.24161,-70.86024 41.245957,70.28039 41.24596,70.28038 z"
       copytype="single_stretched"
       prop_scale="1"
       scale_y_rel="false"
       spacing="0"
       normal_offset="0"
       tang_offset="0"
       prop_units="false"
       vertical_pattern="false"
       fuse_tolerance="0" />
    <inkscape:path-effect
       effect="spiro"
       id="path-effect6212"
       is_visible="true" />
    <inkscape:path-effect
       effect="skeletal"
       id="path-effect6201"
       is_visible="true"
       pattern="m -220.21326,-104.26249 -81.48758,0.57986 -81.48757,0.57985 40.24162,-70.86024 40.24161,-70.86024 41.24596,70.28039 41.24596,70.28038 z"
       copytype="single_stretched"
       prop_scale="1"
       scale_y_rel="false"
       spacing="0"
       normal_offset="0"
       tang_offset="0"
       prop_units="false"
       vertical_pattern="false"
       fuse_tolerance="0" />
    <inkscape:path-effect
       effect="spiro"
       id="path-effect6199"
       is_visible="true" />
    <inkscape:path-effect
       effect="skeletal"
       id="path-effect6173"
       is_visible="true"
       pattern="m -232.33509,-160.83102 a 63.63961,63.63961 0 1 1 -127.27922,0 63.63961,63.63961 0 1 1 127.27922,0 z"
       copytype="single_stretched"
       prop_scale="1"
       scale_y_rel="false"
       spacing="0"
       normal_offset="0"
       tang_offset="0"
       prop_units="false"
       vertical_pattern="false"
       fuse_tolerance="0" />
    <inkscape:path-effect
       effect="spiro"
       id="path-effect6171"
       is_visible="true" />
    <inkscape:path-effect
       effect="skeletal"
       id="path-effect6160"
       is_visible="true"
       pattern="m -232.33509,-160.83102 a 63.63961,63.63961 0 1 1 -127.27922,0 63.63961,63.63961 0 1 1 127.27922,0 z"
       copytype="single_stretched"
       prop_scale="1"
       scale_y_rel="false"
       spacing="0"
       normal_offset="0"
       tang_offset="0"
       prop_units="false"
       vertical_pattern="false"
       fuse_tolerance="0" />
    <inkscape:path-effect
       effect="spiro"
       id="path-effect6158"
       is_visible="true" />
    <inkscape:path-effect
       effect="skeletal"
       id="path-effect6147"
       is_visible="true"
       pattern="m -232.33509,-160.83102 a 63.63961,63.63961 0 1 1 -127.27922,0 63.63961,63.63961 0 1 1 127.27922,0 z"
       copytype="single_stretched"
       prop_scale="1"
       scale_y_rel="false"
       spacing="0"
       normal_offset="0"
       tang_offset="0"
       prop_units="false"
       vertical_pattern="false"
       fuse_tolerance="0" />
    <inkscape:path-effect
       effect="spiro"
       id="path-effect6145"
       is_visible="true" />
    <inkscape:path-effect
       effect="skeletal"
       id="path-effect6126"
       is_visible="true"
       pattern="M 0,5 10,10 10,0 z"
       copytype="single_stretched"
       prop_scale="1"
       scale_y_rel="false"
       spacing="0"
       normal_offset="0"
       tang_offset="0"
       prop_units="false"
       vertical_pattern="false"
       fuse_tolerance="0" />
    <inkscape:path-effect
       effect="spiro"
       id="path-effect6124"
       is_visible="true" />
    <inkscape:path-effect
       effect="skeletal"
       id="path-effect6120"
       is_visible="true"
       pattern="M 0,5 10,10 10,0 z"
       copytype="single_stretched"
       prop_scale="1"
       scale_y_rel="false"
       spacing="0"
       normal_offset="0"
       tang_offset="0"
       prop_units="false"
       vertical_pattern="false"
       fuse_tolerance="0" />
    <inkscape:path-effect
       effect="spiro"
       id="path-effect6118"
       is_visible="true" />
    <inkscape:path-effect
       effect="skeletal"
       id="path-effect6114"
       is_visible="true"
       pattern="M 0,0 0,10 10,5 z"
       copytype="single_stretched"
       prop_scale="1"
       scale_y_rel="false"
       spacing="0"
       normal_offset="0"
       tang_offset="0"
       prop_units="false"
       vertical_pattern="false"
       fuse_tolerance="0" />
    <inkscape:path-effect
       effect="spiro"
       id="path-effect6112"
       is_visible="true" />
    <inkscape:path-effect
       effect="skeletal"
       id="path-effect6108"
       is_visible="true"
       pattern="m 11.111678,-108.08632 0,9.999998 10,-4.999998 z"
       copytype="single_stretched"
       prop_scale="1"
       scale_y_rel="false"
       spacing="0"
       normal_offset="0"
       tang_offset="0"
       prop_units="false"
       vertical_pattern="false"
       fuse_tolerance="0" />
    <inkscape:path-effect
       effect="spiro"
       id="path-effect6106"
       is_visible="true" />
    <inkscape:path-effect
       effect="skeletal"
       id="path-effect6102"
       is_visible="true"
       pattern="m 15.152288,2.0203051 0,9.9999999 10,-4.9999999 z"
       copytype="single_stretched"
       prop_scale="1"
       scale_y_rel="false"
       spacing="0"
       normal_offset="0"
       tang_offset="0"
       prop_units="false"
       vertical_pattern="false"
       fuse_tolerance="0" />
    <inkscape:path-effect
       effect="spiro"
       id="path-effect6100"
       is_visible="true" />
    <inkscape:path-effect
       effect="skeletal"
       id="path-effect6096"
       is_visible="true"
       pattern="M 0,0 0,10 10,5 z"
       copytype="single_stretched"
       prop_scale="1"
       scale_y_rel="false"
       spacing="0"
       normal_offset="0"
       tang_offset="0"
       prop_units="false"
       vertical_pattern="false"
       fuse_tolerance="0" />
    <marker
       inkscape:stockid="EmptyDiamondMstart"
       orient="auto"
       refY="0"
       refX="0"
       id="EmptyDiamondMstart"
       style="overflow:visible">
      <path
         id="path4616"
         d="M 0,-7.0710768 -7.0710894,0 0,7.0710589 7.0710462,0 0,-7.0710768 z"
         style="fill:#ffffff;fill-rule:evenodd;stroke:#000000;stroke-width:1pt;marker-start:none"
         transform="matrix(0.4,0,0,0.4,2.6,0)" />
    </marker>
    <marker
       inkscape:stockid="Arrow1Mstart"
       orient="auto"
       refY="0"
       refX="0"
       id="Arrow1Mstart"
       style="overflow:visible">
      <path
         id="path4503"
         d="M 0,0 5,-5 -12.5,0 5,5 0,0 z"
         style="fill-rule:evenodd;stroke:#000000;stroke-width:1pt;marker-start:none"
         transform="matrix(0.4,0,0,0.4,4,0)" />
    </marker>
    <marker
       inkscape:stockid="Arrow2Lend"
       orient="auto"
       refY="0"
       refX="0"
       id="Arrow2Lend"
       style="overflow:visible">
      <path
         id="path4518"
         style="font-size:12px;fill-rule:evenodd;stroke-width:0.625;stroke-linejoin:round"
         d="M 8.7185878,4.0337352 -2.2072895,0.01601326 8.7185884,-4.0017078 c -1.7454984,2.3720609 -1.7354408,5.6174519 -6e-7,8.035443 z"
         transform="matrix(-1.1,0,0,-1.1,-1.1,0)" />
    </marker>
    <marker
       inkscape:stockid="Arrow1Mend"
       orient="auto"
       refY="0"
       refX="0"
       id="Arrow1Mend"
       style="overflow:visible">
      <path
         id="path4506"
         d="M 0,0 5,-5 -12.5,0 5,5 0,0 z"
         style="fill-rule:evenodd;stroke:#000000;stroke-width:1pt;marker-start:none"
         transform="matrix(-0.4,0,0,-0.4,-4,0)" />
    </marker>
    <marker
       inkscape:stockid="Arrow1Lend"
       orient="auto"
       refY="0"
       refX="0"
       id="Arrow1Lend"
       style="overflow:visible">
      <path
         id="path4500"
         d="M 0,0 5,-5 -12.5,0 5,5 0,0 z"
         style="fill-rule:evenodd;stroke:#000000;stroke-width:1pt;marker-start:none"
         transform="matrix(-0.8,0,0,-0.8,-10,0)" />
    </marker>
    <inkscape:perspective
       sodipodi:type="inkscape:persp3d"
       inkscape:vp_x="0 : 526.18109 : 1"
       inkscape:vp_y="0 : 1000 : 0"
       inkscape:vp_z="744.09448 : 526.18109 : 1"
       inkscape:persp3d-origin="372.04724 : 350.78739 : 1"
       id="perspective10" />
    <filter
       inkscape:collect="always"
       id="filter6941"
       x="-0.13846095"
       width="1.2769219"
       y="-0.13994698"
       height="1.279894"
       color-interpolation-filters="sRGB">
      <feGaussianBlur
         inkscape:collect="always"
         stdDeviation="20.094205"
         id="feGaussianBlur6943" />
    </filter>
    <filter
       inkscape:collect="always"
       id="filter7308"
       color-interpolation-filters="sRGB">
      <feGaussianBlur
         inkscape:collect="always"
         stdDeviation="16.407336"
         id="feGaussianBlur7310" />
    </filter>
    <filter
       inkscape:collect="always"
       id="filter7312"
       x="-0.080191739"
       width="1.1603835"
       y="-0.10472036"
       height="1.2094407"
       color-interpolation-filters="sRGB">
      <feGaussianBlur
         inkscape:collect="always"
         stdDeviation="16.407336"
         id="feGaussianBlur7314" />
    </filter>
    <filter
       inkscape:collect="always"
       id="filter7316"
       color-interpolation-filters="sRGB">
      <feGaussianBlur
         inkscape:collect="always"
         stdDeviation="16.407336"
         id="feGaussianBlur7318" />
    </filter>
    <filter
       inkscape:collect="always"
       id="filter7320"
       color-interpolation-filters="sRGB">
      <feGaussianBlur
         inkscape:collect="always"
         stdDeviation="16.407336"
         id="feGaussianBlur7322" />
    </filter>
    <filter
       inkscape:collect="always"
       id="filter7324"
       x="-0.077217773"
       width="1.1544355"
       y="-0.10305321"
       height="1.2061064"
       color-interpolation-filters="sRGB">
      <feGaussianBlur
         inkscape:collect="always"
         stdDeviation="16.407336"
         id="feGaussianBlur7326" />
    </filter>
    <filter
       inkscape:collect="always"
       id="filter7328"
       color-interpolation-filters="sRGB">
      <feGaussianBlur
         inkscape:collect="always"
         stdDeviation="16.407336"
         id="feGaussianBlur7330" />
    </filter>
    <filter
       id="filter7591"
       inkscape:label="Speckle"
       x="0"
       y="0"
       width="1"
       height="1"
       inkscape:menu="Overlays"
       inkscape:menu-tooltip="Fill object with sparse translucent specks"
       color-interpolation-filters="sRGB">
      <feTurbulence
         id="feTurbulence7593"
         result="result1"
         numOctaves="2"
         baseFrequency="0.20000000000000001"
         type="turbulence" />
      <feColorMatrix
         id="feColorMatrix7595"
         result="result0"
         in="SourceGraphic"
         type="luminanceToAlpha" />
      <feColorMatrix
         id="feColorMatrix7597"
         values="1 0 0 0 0 0 1 0 0 0 0 0 1 0 0 0 0 0 0.8 0"
         result="result2" />
      <feComposite
         id="feComposite7599"
         in2="result2"
         in="result1"
         operator="over" />
      <feColorMatrix
         id="feColorMatrix7601"
         values="1 0 0 0 0 0 1 0 0 0 0 0 1 0 0 0 0 0 20 -14"
         result="result91" />
      <feComposite
         id="feComposite7603"
         in2="result91"
         operator="out"
         in="SourceGraphic" />
    </filter>
    <filter
       id="filter7609"
       inkscape:label="Speckle"
       x="0"
       y="0"
       width="1"
       height="1"
       inkscape:menu="Overlays"
       inkscape:menu-tooltip="Fill object with sparse translucent specks"
       color-interpolation-filters="sRGB">
      <feTurbulence
         id="feTurbulence7611"
         result="result1"
         numOctaves="1"
         baseFrequency="0.21"
         type="fractalNoise" />
      <feColorMatrix
         id="feColorMatrix7613"
         result="result0"
         in="SourceGraphic"
         type="luminanceToAlpha" />
      <feColorMatrix
         id="feColorMatrix7615"
         values="1 0 0 0 0 0 1 0 0 0 0 0 1 0 0 0 0 0 0.8 0"
         result="result2" />
      <feComposite
         id="feComposite7617"
         in2="result2"
         in="result1"
         operator="over" />
      <feColorMatrix
         id="feColorMatrix7619"
         values="1 0 0 0 0 0 1 0 0 0 0 0 1 0 0 0 0 0 20 -14"
         result="result91" />
      <feComposite
         id="feComposite7621"
         in2="result91"
         operator="out"
         in="SourceGraphic" />
    </filter>
    <linearGradient
       inkscape:collect="always"
       xlink:href="#linearGradient7785"
       id="linearGradient8061"
       gradientUnits="userSpaceOnUse"
       x1="-355.57367"
       y1="-444.89066"
       x2="-355.57367"
       y2="-284.87305" />
    <linearGradient
       inkscape:collect="always"
       xlink:href="#linearGradient7785"
       id="linearGradient8063"
       gradientUnits="userSpaceOnUse"
       x1="-346.83484"
       y1="-494.5816"
       x2="-62.074593"
       y2="-419.65924" />
    <linearGradient
       inkscape:collect="always"
       xlink:href="#linearGradient7785"
       id="linearGradient8065"
       gradientUnits="userSpaceOnUse"
       x1="-355.57367"
       y1="-444.89066"
       x2="-355.57367"
       y2="-284.87305" />
    <linearGradient
       inkscape:collect="always"
       xlink:href="#linearGradient7785"
       id="linearGradient8067"
       gradientUnits="userSpaceOnUse"
       x1="-346.83484"
       y1="-494.5816"
       x2="-62.074593"
       y2="-419.65924" />
  </defs>
  <sodipodi:namedview
     id="base"
     pagecolor="#ffffff"
     bordercolor="#666666"
     borderopacity="1.0"
     inkscape:pageopacity="0.0"
     inkscape:pageshadow="2"
     inkscape:zoom="0.98994949"
     inkscape:cx="445.69396"
     inkscape:cy="307.13332"
     inkscape:document-units="px"
     inkscape:current-layer="layer1"
     showgrid="false"
     inkscape:object-nodes="true"
     inkscape:window-width="1598"
     inkscape:window-height="1147"
     inkscape:window-x="0"
     inkscape:window-y="24"
     inkscape:window-maximized="1" />
  <metadata
     id="metadata7">
    <rdf:RDF>
      <cc:Work
         rdf:about="">
        <dc:format>image/svg+xml</dc:format>
        <dc:type
           rdf:resource="http://purl.org/dc/dcmitype/StillImage" />
        <dc:title />
      </cc:Work>
    </rdf:RDF>
  </metadata>
  <g
     inkscape:label="Ebene 1"
     inkscape:groupmode="layer"
     id="layer1"
     transform="translate(608.21248,-581.60827)">
    <rect
       style="fill:#000000;fill-opacity:1;filter:url(#filter7591)"
       id="rect2816"
       width="1484.0754"
       height="1458.7079"
       x="-608.21246"
       y="-228.72487"
       transform="matrix(0.61472177,0,0,0.48816524,-234.33104,693.2638)" />
    <path
       sodipodi:type="star"
       style="fill:#ffffff;fill-opacity:1;filter:url(#filter6941)"
       id="path2818"
       sodipodi:sides="19"
       sodipodi:cx="-413.1524"
       sodipodi:cy="181.61069"
       sodipodi:r1="174.94315"
       sodipodi:r2="72.88752"
       sodipodi:arg1="0.49980755"
       sodipodi:arg2="0.14483507"
       inkscape:flatsided="false"
       inkscape:rounded="0.02"
       inkscape:randomized="0.024"
       d="m -255.66845,269.51779 c 0.0916,2.1722 -87.61314,-79.73862 -88.90287,-77.9685 -1.49721,2.05489 52.78853,115.94212 51.99953,118.34152 -0.67966,2.06688 -56.77483,-100.13018 -58.67438,-98.99921 -2.20517,1.31294 10.53695,129.17084 9.02567,131.22677 -1.30184,1.771 -18.41254,-105.72802 -20.56077,-105.18972 -2.49384,0.6249 -37.43543,114.78239 -39.4848,116.24853 -1.76536,1.26294 20.0776,-101.83078 17.90975,-102.07409 -2.51663,-0.28246 -73.51343,100.97832 -75.92842,101.69608 -2.08031,0.61829 55.56738,-96.75654 53.53188,-97.58549 -2.36299,-0.96233 -103.85667,73.16247 -106.38711,72.98693 -2.17975,-0.15121 84.65986,-70.67107 83.05756,-72.14932 -1.86009,-1.71609 -114.99774,30.96548 -117.34634,30.01269 -2.02312,-0.82075 96.93288,-40.68844 95.89865,-42.6172 -1.20063,-2.23906 -127.68254,-0.71458 -129.54155,-2.41108 -1.60137,-1.46139 109.14227,-11.91991 108.81878,-14.07747 -0.37554,-2.50468 -115.07292,-42.94801 -116.28993,-45.19856 -1.04834,-1.93865 110.46462,26.00314 110.76422,23.84152 0.3478,-2.50939 -102.66326,-75.58891 -103.12533,-78.11169 -0.39803,-2.17315 96.31712,61.5396 97.37647,59.62142 1.22977,-2.22679 -66.40396,-114.734342 -66.02713,-117.231318 0.3246,-2.150924 62.6411,93.447378 64.26809,91.944938 1.88875,-1.74415 -23.0168,-122.015905 -21.85447,-124.298878 1.00125,-1.966579 29.82373,104.283208 31.83712,103.419478 2.33731,-1.00269 13.85094,-130.613628 15.68296,-132.3445562 1.57813,-1.4910421 5.24023,112.5995062 7.42475,112.4547162 2.53597,-0.16809 53.82122,-110.493312 56.16157,-111.5638029 2.016,-0.9221333 -40.03309,97.1223129 -37.91695,97.7438229 2.45659,0.72149 92.35067,-81.598154 94.86215,-81.841056 2.16341,-0.209239 -73.44485,78.965366 -71.58296,80.122476 2.16145,1.34327 113.37549,-53.710394 115.84671,-53.166149 2.12874,0.468819 -93.53008,63.837539 -92.15561,65.539649 1.59559,1.97596 123.49968,-22.926825 125.70977,-21.620787 1.90379,1.125036 -106.47937,27.909017 -105.74898,29.970717 0.8479,2.3934 124.78418,24.60425 126.37969,26.62346 1.37439,1.73938 -112.84254,-5.62318 -112.88902,-3.45268 -0.054,2.5197 112.46514,57.13301 113.27693,59.56087 0.69929,2.09138 -98.06543,-43.03318 -98.80977,-40.9661 -0.86408,2.39965 83.2878,98.9904 83.39414,101.51207 z"
       transform="matrix(0.52231168,0,0,0.52231168,30.6501,646.98651)" />
    <g
       id="g7346"
       transform="matrix(0.45123595,0,0,0.29560567,-356.15838,647.55421)">
      <path
         style="fill:#ffffff;fill-opacity:1;fill-rule:evenodd;stroke:#ffffff;stroke-width:8;stroke-opacity:1;filter:url(#filter7328)"
         d="m 458.72968,316.06268 9.9976,0.2191 c 0.10553,-5.60266 -0.35195,-11.21074 -1.36311,-16.71889 -2.94595,-15.98277 -10.57075,-30.93696 -21.55591,-42.80738 -10.98652,-11.86155 -25.17187,-20.56515 -40.58659,-25.18559 -15.41161,-4.61399 -31.90846,-5.16614 -47.57289,-1.83409 -2e-5,0 -3e-5,0 -4e-5,0 -15.65959,3.33501 -30.39605,10.47799 -42.80832,20.48092 -12.39588,10.00045 -22.32518,22.82208 -29.28588,37.02131 -10e-6,10e-6 -10e-6,2e-5 -2e-5,3e-5 -6.98739,14.23465 -11.06689,29.86511 -11.88366,45.68951 -1.5872,31.57756 9.37096,63.11866 28.66828,87.87508 19.72468,25.31146 47.84406,43.66215 78.6383,52.23036 10e-6,10e-6 2e-5,10e-6 3e-5,10e-6 30.78991,8.55909 63.98528,7.4344 94.26286,-2.42415 30.27129,-9.86149 57.51491,-28.2726 78.47446,-52.09739 20.95497,-23.82376 35.64292,-52.90346 43.12047,-83.64051 7.11133,-29.24945 7.59852,-59.89391 2.63512,-89.47687 -4.98697,-29.74318 -15.35041,-58.50194 -30.04047,-84.77653 -2e-5,-3e-5 -3e-5,-5e-5 -4e-5,-7e-5 C 544.99044,116.90227 508.9704,79.788885 466.09023,54.079908 c -3e-5,-1.3e-5 -5e-5,-2.6e-5 -7e-5,-4e-5 -42.88107,-25.707402 -92.51438,-39.945966 -142.41542,-40.899746 -2e-5,0 -5e-5,-1e-6 -7e-5,-1e-6 C 273.77355,12.22755 223.71906,24.561748 180.03931,48.53026 136.35984,72.499297 99.14533,108.05285 73.235393,150.5085 99.421766,108.22279 136.8217,72.986098 180.50484,49.385219 224.1877,25.783814 274.08288,13.856152 323.63115,15.12661 c 49.54828,1.26926 98.6806,15.734485 140.94919,41.453168 2e-5,1.3e-5 5e-5,2.6e-5 7e-5,3.9e-5 42.26954,25.717171 77.6262,62.657433 101.44442,105.926773 14.30819,25.99488 24.32358,54.37273 29.02586,83.61356 4.67185,29.07236 4.00407,59.07808 -3.12863,87.53817 -7.49427,29.92114 -21.98327,58.14511 -42.45335,81.09245 -20.46397,22.94457 -46.95429,40.59408 -76.1538,49.87691 -29.19027,9.28481 -61.12625,10.15633 -90.46714,1.76902 -2e-5,-1e-5 -5e-5,-2e-5 -7e-5,-2e-5 -29.33266,-8.37712 -56.07751,-26.08358 -74.57102,-50.18626 -18.06428,-23.5502 -28.26008,-53.44012 -26.51405,-82.84049 0.85199,-14.70371 4.75258,-29.23707 11.32349,-42.40539 1e-5,-2e-5 2e-5,-4e-5 3e-5,-6e-5 6.554,-13.11559 15.79456,-24.91156 27.19151,-33.95441 11.43355,-9.0828 24.97811,-15.54454 39.21433,-18.4648 2e-5,-10e-6 4e-5,-10e-6 7e-5,-2e-5 14.23074,-2.92307 29.21442,-2.32864 43.03023,1.92337 13.81203,4.24534 26.53581,12.16084 36.22033,22.78291 9.68528,10.61255 16.40526,23.99561 18.88191,38.06856 0.85969,4.86142 1.23049,9.81079 1.10515,14.74259 z"
         id="path6469"
         inkscape:path-effect="#path-effect6477;#path-effect6371"
         inkscape:original-d="m 463.72848,316.17223 c 0,0 216.33511,-106.6184 -1.23413,-15.73074 C 244.92513,391.32913 183.39653,341.27865 305.30791,418.50655 366.2636,457.1205 555.35304,370.7491 594.37866,334.26466 613.89147,316.02244 630.74494,230.20017 567.72735,161.56206 510.06333,98.755 73.235393,150.5085 73.235393,150.5085"
         sodipodi:nodetypes="cssssc" />
      <path
         sodipodi:nodetypes="cssssc"
         inkscape:original-d="m 420.95688,261.79498 c 0,0 15.83331,-240.6609 -14.24029,-6.79658 C 376.64299,488.86269 302.5337,517.12279 430.37072,450.15838 494.28922,416.67618 568.0187,278.28143 546.28379,229.47869 530.24197,193.45899 315.98296,106.94578 202.87727,128.00891 89.771574,149.07204 62.104909,471.99724 62.104909,471.99724"
         inkscape:path-effect="#path-effect7114;#path-effect7116"
         id="path7112"
         d="m 418.36838,266.07279 5.177,-8.55562 c -4.79942,-2.88323 -9.88025,-5.28816 -15.14914,-7.17141 -15.42142,-5.50009 -32.30374,-6.42599 -48.20815,-2.87796 -15.89774,3.55365 -30.67294,11.48235 -42.52165,22.5527 -11.84173,11.07108 -20.70111,25.15072 -25.74822,40.48073 0,2e-5 -1e-5,3e-5 -1e-5,4e-5 -5.04213,15.32752 -6.28982,31.78876 -3.8479,47.66921 2.44839,15.86596 8.63052,31.00427 17.53331,44.22689 1e-5,10e-6 1e-5,2e-5 2e-5,3e-5 8.91935,13.26257 20.5472,24.6718 34.00099,33.28184 26.8707,17.14571 60.07762,23.11304 91.33384,18.13212 24.07985,-3.8311 47.01837,-13.89902 66.32596,-28.65564 10e-6,-10e-6 2e-5,-2e-5 3e-5,-2e-5 19.3034,-14.75689 34.9442,-34.09524 45.6763,-55.80972 10.70898,-21.67979 16.36891,-45.66947 17.23067,-69.73399 0.86977,-24.14261 -3.00363,-48.41897 -11.3185,-71.06687 C 536.9731,196.20883 516.48059,167.25758 490.51052,144.77271 464.5411,122.29085 433.222,106.25497 400.07473,97.588537 367.00757,88.945985 332.19086,87.797895 298.51076,93.042612 c -33.82534,5.264699 -66.60115,16.863458 -96.30046,33.786378 -2e-5,10e-6 -4e-5,2e-5 -7e-5,3e-5 C 143.91364,160.04843 97.345646,213.29141 72.200152,275.32986 47.056741,337.36917 43.472238,407.86469 62.104909,471.99724 43.906517,407.74011 48.009354,337.42117 73.454562,275.84321 98.897687,214.2644 145.56752,161.70324 203.54431,129.1888 c 2e-5,-10e-6 4e-5,-3e-5 6e-5,-4e-5 29.53009,-16.56174 62.03844,-27.81248 95.47804,-32.783646 1e-5,-2e-6 2e-5,-4e-6 3e-5,-6e-6 33.28935,-4.946178 67.59349,-3.581967 100.0045,5.135492 10e-6,0 2e-5,1e-5 3e-5,1e-5 32.50354,8.73935 63.11882,24.68207 88.3438,46.83341 25.22285,22.14706 45.02813,50.54125 56.34388,82.03824 7.92025,22.03048 11.51288,45.60834 10.512,68.96561 -1.0024,23.27056 -6.6141,46.38354 -17.04052,67.09926 -10.45124,20.77719 -25.58143,39.22791 -44.09996,53.17256 -2e-5,10e-6 -4e-5,3e-5 -6e-5,4e-5 -18.51351,13.94426 -40.44806,23.39525 -63.28314,26.85567 -29.58641,4.47525 -60.96801,-1.35958 -85.85493,-17.56641 -12.45681,-8.08672 -23.21656,-18.79741 -31.41607,-31.16852 -10e-6,-2e-5 -2e-5,-4e-5 -4e-5,-6e-5 -8.16294,-12.33154 -13.79734,-26.36235 -15.91444,-40.88407 -2.13358,-14.57391 -0.89108,-29.66445 3.79752,-43.55535 0,-2e-5 1e-5,-4e-5 2e-5,-6e-5 4.68344,-13.88779 12.8238,-26.64037 23.55568,-36.51675 10.72442,-9.87664 24.09128,-16.93837 38.27194,-19.98868 14.17316,-3.05574 29.25136,-2.13081 42.79429,2.82554 4.64159,1.69454 9.11621,3.85022 13.33144,6.42175 z"
         style="fill:#ffffff;fill-opacity:1;fill-rule:evenodd;stroke:#ffffff;stroke-width:8;stroke-opacity:1;filter:url(#filter7324)" />
      <path
         style="fill:#ffffff;fill-opacity:1;fill-rule:evenodd;stroke:#ffffff;stroke-width:8;stroke-opacity:1;filter:url(#filter7320)"
         d="m 352.96561,272.24527 -4.821,-8.76116 c -4.89629,2.71537 -9.519,5.91346 -13.78392,9.53513 -12.47357,10.60699 -21.71552,24.76567 -26.59388,40.31354 -4.87017,15.54491 -5.39007,32.30453 -1.72642,48.09982 3.66774,15.78964 11.43187,30.50029 22.18422,42.53424 1e-5,1e-5 2e-5,2e-5 2e-5,3e-5 10.75268,12.02841 24.38395,21.3374 39.35617,27.16073 14.96281,5.8105 31.16194,8.02363 47.06173,6.92322 2e-5,0 3e-5,-10e-6 4e-5,-10e-6 15.94269,-1.09484 31.634,-5.46171 45.8132,-12.80882 28.27599,-14.69929 50.03743,-40.47449 61.34068,-70.02982 8.7119,-22.76266 11.45301,-47.65267 8.32186,-71.74028 0,-2e-5 0,-3e-5 0,-4e-5 -3.13342,-24.08418 -12.06243,-47.2859 -25.49872,-67.42565 -13.41754,-20.10219 -31.35591,-36.98885 -51.75523,-49.7621 -20.46321,-12.81927 -43.41101,-21.60186 -67.16849,-25.73067 -26.01101,-4.51471 -52.84204,-3.53596 -78.53319,2.18296 -2e-5,1e-5 -4e-5,1e-5 -7e-5,2e-5 -25.75657,5.73029 -50.43069,16.17493 -72.45618,30.64244 -2e-5,2e-5 -4e-5,3e-5 -6e-5,4e-5 -43.98299,28.90982 -77.08884,73.04276 -95.19592,122.26445 -1e-5,2e-5 -2e-5,4e-5 -2e-5,6e-5 -12.95651,35.21241 -18.18415,73.13356 -15.87753,110.51278 0,2e-5 10e-6,4e-5 10e-6,7e-5 2.30448,37.3793 12.14981,74.31804 29.28414,107.56949 1e-5,2e-5 2e-5,4e-5 3e-5,7e-5 17.13637,33.25046 41.47902,62.65419 70.50099,86.15713 29.02151,23.5035 62.80182,41.1701 98.77815,50.9906 -35.9068,-10.07178 -69.50807,-27.95819 -98.28377,-51.59672 -28.77524,-23.63908 -52.80379,-53.09554 -69.60231,-86.26277 -1e-5,-2e-5 -2e-5,-4e-5 -3e-5,-6e-5 -16.80052,-33.16619 -26.30663,-69.91466 -28.33464,-106.99412 -2.02587,-37.0796 3.42112,-74.59285 16.46736,-109.28569 1e-5,-10e-6 1e-5,-3e-5 2e-5,-4e-5 18.24261,-48.5 51.21014,-91.78803 94.5693,-119.81834 1e-5,-1e-5 2e-5,-1e-5 3e-5,-2e-5 21.69381,-14.03397 45.94393,-24.09353 71.17004,-29.5202 2e-5,0 5e-5,-1e-5 7e-5,-1e-5 25.15735,-5.40865 51.34427,-6.18215 76.58552,-1.60848 23.04471,4.17045 45.26292,12.85885 64.99306,25.41314 19.65429,12.5121 36.86676,28.93557 49.5968,48.32951 12.77066,19.44606 21.18675,41.78 24.00597,64.79579 0,2e-5 10e-6,4e-5 10e-6,6e-5 2.82135,23.01131 0.04,46.73828 -8.38106,68.24978 -10.91992,27.87263 -31.67262,52.14121 -58.16235,65.59429 -13.23727,6.74636 -27.89846,10.70927 -42.71698,11.62343 -2e-5,0 -4e-5,0 -7e-5,10e-6 -14.76603,0.90234 -29.73891,-1.23622 -43.37737,-6.66722 -13.69179,-5.44284 -26.14158,-14.06863 -35.82814,-25.07909 -2e-5,-2e-5 -3e-5,-3e-5 -5e-5,-5e-5 -9.68645,-11.00447 -16.65975,-24.43503 -19.84545,-38.6711 -3.18965,-14.22976 -2.61917,-29.33953 1.83242,-43.14724 4.44314,-13.80395 12.78638,-26.40002 23.85263,-35.64994 3.78886,-3.17206 7.89346,-5.96891 12.22838,-8.33319 z"
         id="path7118"
         inkscape:path-effect="#path-effect7120;#path-effect7122"
         inkscape:original-d="m 350.55511,267.86469 c 0,0 -200.5018,-134.0425 -13.00615,8.93416 C 525.04457,419.7755 512.46389,498.08607 518.38952,353.89377 521.35234,281.79762 436.3411,158.72522 385.23184,143.17026 359.67721,135.39278 183.56116,193.39003 140.97663,296.18879 98.392098,398.98756 322.19622,650.87354 322.19622,650.87354"
         sodipodi:nodetypes="cssssc" />
      <path
         sodipodi:nodetypes="cssssc"
         inkscape:original-d="m 319.79726,331.05835 c 0,0 -216.33512,106.61841 1.23413,15.73074 217.56922,-90.88764 279.09782,-40.83716 157.18644,-118.06506 -60.95568,-38.61395 -210.04513,-26.52826 -249.07075,9.95618 -19.51281,18.24222 -61.0127,175.96698 -4.77726,263.41689 56.23545,87.44992 428.77767,48.9107 428.77767,48.9107"
         inkscape:path-effect="#path-effect7126;#path-effect7128"
         id="path7124"
         d="m 324.79617,331.16289 -9.99782,-0.20908 c -0.0988,5.59923 0.3594,11.20314 1.36541,16.70845 2.94863,16.07287 10.5854,31.1212 21.60028,43.08524 11.01636,11.95539 25.25211,20.7512 40.73699,25.44777 15.48197,4.69017 32.06993,5.30008 47.8315,1.99519 2e-5,0 3e-5,0 4e-5,0 15.7569,-3.30791 30.59595,-10.4564 43.0932,-20.49696 12.48127,-10.03861 22.47352,-22.93356 29.46013,-37.22055 1e-5,-1e-5 2e-5,-2e-5 2e-5,-3e-5 7.013,-14.32165 11.08047,-30.05545 11.83091,-45.97326 1.4552,-31.76618 -9.85726,-63.44656 -29.62873,-88.06254 -15.29943,-19.05904 -35.4582,-34.03455 -57.90408,-43.50152 -10e-6,-1e-5 -2e-5,-1e-5 -4e-5,-2e-5 -22.44428,-9.46325 -47.06778,-13.43912 -71.30312,-11.90869 -24.19594,1.53359 -47.86988,8.67563 -69.15175,20.0788 -21.34971,11.43334 -40.38796,27.11415 -55.65652,45.87447 -30.03247,36.93993 -45.42189,84.77445 -45.20977,132.17489 0.21618,47.39451 15.52555,94.13744 41.06687,133.86062 2e-5,2e-5 3e-5,4e-5 4e-5,6e-5 22.39629,34.83855 52.92021,64.24391 88.05231,86.01605 2e-5,2e-5 4e-5,3e-5 6e-5,4e-5 35.13044,21.77471 74.99444,35.99332 116.02595,40.53217 2e-5,10e-6 5e-5,10e-6 7e-5,10e-6 41.03193,4.5356 82.97246,-0.63646 121.896,-14.16843 38.92387,-13.53101 74.9702,-35.47096 104.24337,-64.38777 -29.47253,28.71358 -65.62105,50.35726 -104.52103,63.58009 -38.90031,13.22187 -80.69281,18.07019 -121.42475,13.27898 -2e-5,0 -5e-5,-10e-6 -7e-5,-10e-6 -40.73228,-4.78797 -80.19345,-19.18978 -114.86231,-41.00824 -1e-5,-10e-6 -2e-5,-2e-5 -3e-5,-2e-5 -34.66725,-21.8211 -64.66806,-51.13868 -86.52939,-85.68013 -2e-5,-2e-5 -3e-5,-4e-5 -4e-5,-6e-5 -24.93316,-39.40267 -39.69474,-85.56757 -39.55673,-132.02702 0.13396,-46.43833 15.52124,-93.13082 44.96843,-128.77113 14.93833,-18.09973 33.51764,-33.17899 54.25579,-44.10036 20.6683,-10.87841 43.56137,-17.61866 66.78158,-18.91252 23.28545,-1.30326 46.88846,2.67634 68.2426,11.86659 21.35164,9.18616 40.48101,23.60452 54.84602,41.77697 18.51594,23.43809 29.03752,53.48939 27.40185,83.08741 -0.7969,14.80242 -4.69676,29.44284 -11.30269,42.7011 -1e-5,2e-5 -2e-5,4e-5 -3e-5,6e-5 -6.58967,13.20654 -15.90294,25.07731 -27.39294,34.15906 -11.52681,9.1219 -25.18256,15.58873 -39.52391,18.48175 -2e-5,1e-5 -5e-5,1e-5 -7e-5,2e-5 -14.33605,2.8959 -29.41864,2.24094 -43.31239,-2.0902 -13.89018,-4.32455 -26.67005,-12.33852 -36.38928,-23.06153 -9.72014,-10.71374 -16.45218,-24.20013 -18.92908,-38.37269 -0.85439,-4.86578 -1.22435,-9.81793 -1.10285,-14.75303 z"
         style="fill:#ffffff;fill-opacity:1;fill-rule:evenodd;stroke:#ffffff;stroke-width:8;stroke-opacity:1;filter:url(#filter7316)" />
      <path
         style="fill:#ffffff;fill-opacity:1;fill-rule:evenodd;stroke:#ffffff;stroke-width:8;stroke-opacity:1;filter:url(#filter7312)"
         d="m 366.16434,384.18633 -5.17066,8.55946 c 4.79991,2.87731 9.87847,5.27985 15.1437,7.16495 15.482,5.53129 32.43041,6.48344 48.4065,2.95005 15.96959,-3.539 30.82268,-11.4669 42.74578,-22.55476 11.91626,-11.08868 20.84564,-25.2059 25.94512,-40.58818 5.09453,-15.37991 6.37544,-31.90872 3.93961,-47.85674 -2.44243,-15.93391 -8.64972,-31.13842 -17.60028,-44.4083 -1e-5,-2e-5 -3e-5,-4e-5 -4e-5,-6e-5 -8.96678,-13.30934 -20.66626,-24.74668 -34.20449,-33.34544 -27.04058,-17.12456 -60.46619,-22.90638 -91.79647,-17.56108 -23.89261,4.0718 -46.56874,14.34583 -65.60642,29.20173 -19.03339,14.85573 -34.40673,34.18264 -44.99019,55.79267 -10.55901,21.57024 -16.21806,45.35879 -17.27311,69.2507 -1.06331,23.97878 2.41854,48.11209 10.09746,70.81054 8.86288,26.18479 23.19095,50.38443 41.35046,71.12388 18.19422,20.78381 40.23252,38.16922 64.68178,50.95214 2e-5,10e-6 4e-5,2e-5 6e-5,3e-5 48.8536,25.52567 106.47953,32.7489 160.44057,22.45373 32.05437,-6.11416 62.8487,-18.41137 90.46713,-35.6908 27.61908,-17.27837 52.11088,-39.56964 71.57506,-65.64859 19.46314,-26.07973 33.83782,-55.86517 42.52156,-87.17698 8.68413,-31.31171 11.69254,-64.20543 8.45065,-96.49433 3.00907,32.31143 -0.24022,65.13752 -9.12617,96.30436 -8.88634,31.16673 -23.42542,60.72982 -42.96774,86.5235 -19.54128,25.79446 -44.0379,47.75687 -71.56348,64.70338 -27.52623,16.94545 -58.131,28.90529 -89.87293,34.72042 -53.43613,9.78707 -110.27464,2.21793 -158.06429,-23.22237 -2e-5,-1e-5 -4e-5,-2e-5 -6e-5,-3e-5 -23.91478,-12.72244 -45.41229,-29.94353 -63.0858,-50.42846 -17.63201,-20.44161 -31.46727,-44.19792 -39.90428,-69.75892 -7.31427,-22.14772 -10.52749,-45.64638 -9.326,-68.89943 1.20099,-23.15733 6.83359,-46.12423 17.14796,-66.77983 10.33986,-20.71686 25.24677,-39.18396 43.54388,-53.23816 2e-5,-1e-5 3e-5,-2e-5 5e-5,-4e-5 18.29192,-14.05329 40.00672,-23.70459 62.68797,-27.38628 29.68638,-4.81258 61.30259,0.87181 86.36559,17.0854 12.54475,8.09027 23.37671,18.84366 31.623,31.27448 2e-5,1e-5 3e-5,3e-5 4e-5,5e-5 8.21021,12.39207 13.86656,26.50171 15.97375,41.10186 2.1237,14.65249 0.84152,29.82004 -3.90601,43.77124 0,2e-5 -1e-5,4e-5 -2e-5,6e-5 -4.7424,13.94825 -12.96149,26.74375 -23.77636,36.64169 -10.80753,9.89831 -24.26167,16.95925 -38.52276,19.99341 -14.2538,3.03959 -29.40495,2.0823 -43.01326,-2.91274 -4.64234,-1.69996 -9.11831,-3.85758 -13.33686,-6.42821 z"
         id="path7130"
         inkscape:path-effect="#path-effect7132;#path-effect7134"
         inkscape:original-d="m 363.57901,388.46606 c 0,0 -15.83331,240.6609 14.24028,6.79658 30.07361,-233.86429 104.1829,-262.12438 -23.65412,-195.15998 -63.9185,33.48219 -127.99671,168.64029 -115.91306,220.67969 6.04182,26.01969 157.80082,151.81863 263.76365,143.96978 105.96283,-7.84884 213.27236,-283.63118 213.27236,-283.63118"
         sodipodi:nodetypes="cssssc" />
      <path
         sodipodi:nodetypes="cssssc"
         inkscape:original-d="m 438.02139,380.37604 c 0,0 200.5018,134.04251 13.00616,-8.93415 C 263.53193,228.46523 276.11262,150.15466 270.18698,294.34697 c -2.96282,72.09614 153.477,215.16855 204.58626,230.7235 25.55463,7.77747 85.59924,-67.71977 140.68377,-110.87567 C 670.54155,371.0389 473.52313,4.51006 473.52313,4.51006"
         inkscape:path-effect="#path-effect7138;#path-effect7140"
         id="path7136"
         d="m 435.63963,375.97977 4.76352,8.79254 c 4.9344,-2.69429 9.5788,-5.90726 13.83743,-9.57167 11.9805,-10.32642 20.72558,-24.13505 25.16261,-39.22459 4.42819,-15.08519 4.57724,-31.26689 0.6997,-46.41547 -3.88118,-15.14179 -11.68724,-29.14095 -22.28326,-40.52217 -1e-5,0 -1e-5,-1e-5 -2e-5,-2e-5 -10.59546,-11.37528 -23.86619,-20.10239 -38.34539,-25.54385 -3e-5,-1e-5 -5e-5,-2e-5 -7e-5,-3e-5 -28.98588,-10.84061 -62.04167,-8.21953 -89.63338,5.17262 -27.55585,13.3922 -49.5376,36.7718 -62.97036,64.02814 -14.60737,29.60775 -19.43328,63.74186 -14.14657,96.21962 5.29319,32.47255 20.55473,63.0847 42.84429,87.14594 22.2911,24.05537 51.42174,41.4987 82.9211,50.28198 31.49789,8.77922 65.21611,8.94478 96.84912,1.01631 29.99362,-7.52584 57.8708,-22.36684 81.76251,-41.80863 24.0648,-19.57757 44.28567,-43.71906 59.83699,-70.48833 10e-6,-2e-5 3e-5,-4e-5 4e-5,-6e-5 20.73261,-35.68892 33.23511,-75.9751 37.12806,-116.98303 0,-2e-5 0,-4e-5 0,-7e-5 3.89567,-41.00761 -0.80628,-82.86733 -14.40846,-121.69692 -1e-5,-2e-5 -2e-5,-5e-5 -2e-5,-7e-5 C 626.05251,137.55333 603.62448,101.9731 575.07217,72.448467 546.52053,42.923194 511.75289,19.359351 473.52313,4.51006 c 38.12527,15.115549 72.6672,38.896513 100.93014,68.532762 28.26227,29.636888 50.33629,65.224878 63.5826,103.900988 0,2e-5 10e-6,4e-5 2e-5,7e-5 13.24904,38.67511 17.61053,80.26108 13.46821,120.88286 0,2e-5 0,5e-5 0,7e-5 -4.14508,40.62155 -16.80788,80.41069 -37.52797,115.50069 0,1e-5 -10e-6,2e-5 -2e-5,3e-5 -15.53974,26.31755 -35.64047,49.9744 -59.43625,69.0521 -23.61743,18.92963 -51.03647,33.28858 -80.33173,40.40219 -30.90586,7.51346 -63.76215,7.11509 -94.2534,-1.62457 -30.488,-8.73511 -58.60527,-25.84911 -79.92481,-49.2009 -21.3196,-23.34431 -35.81795,-52.96156 -40.65351,-84.10073 0,-2e-5 -1e-5,-5e-5 -1e-5,-7e-5 -4.84162,-31.13136 0.0209,-63.80847 14.12715,-91.85688 12.98282,-25.78545 33.95472,-47.83214 59.81363,-60.09297 25.80573,-12.25257 56.6967,-14.52457 83.08471,-4.32541 2e-5,1e-5 4e-5,1e-5 6e-5,2e-5 13.22223,5.08395 25.31925,13.15316 34.83796,23.53963 10e-6,10e-6 3e-5,3e-5 5e-5,5e-5 9.51766,10.38002 16.51043,23.11528 19.8745,36.70705 3.36752,13.58421 3.1394,28.10036 -0.89232,41.414 -4.02258,13.3083 -11.8646,25.51512 -22.40762,34.4421 -3.75228,3.18342 -7.84295,5.97071 -12.17489,8.29663 z"
         style="fill:#ffffff;fill-opacity:1;fill-rule:evenodd;stroke:#ffffff;stroke-width:8;stroke-opacity:1;filter:url(#filter7308)" />
    </g>
    <flowRoot
       xml:space="preserve"
       id="flowRoot7633"
       style="font-size:40px;font-style:normal;font-weight:normal;fill:#ffffff;fill-opacity:1;stroke:none;font-family:Bitstream Vera Sans"
       transform="matrix(0.40643945,0,0,0.40643945,-364.29545,622.83978)"><flowRegion
         id="flowRegion7635"><rect
           id="rect7637"
           width="1224.3049"
           height="872.77173"
           x="-557.60419"
           y="-70.927444"
           style="fill:#ffffff" /></flowRegion><flowPara
         id="flowPara7639"
         style="font-size:48px;font-style:normal;font-variant:normal;font-weight:bold;font-stretch:normal;font-family:Sans;-inkscape-font-specification:Sans Bold">1. Step:</flowPara><flowPara
         id="flowPara7645"
         style="font-size:32px;font-style:normal;font-variant:normal;font-weight:normal;font-stretch:normal;font-family:Sans;-inkscape-font-specification:Sans">Copy the following Dune II files into the warp gate:</flowPara><flowPara
         style="font-size:20px;font-style:normal;font-variant:normal;font-weight:normal;font-stretch:normal;font-family:Sans;-inkscape-font-specification:Sans"
         id="flowPara7649"> </flowPara><flowPara
         style="font-size:28px;font-style:normal;font-variant:normal;font-weight:normal;font-stretch:normal;font-family:Sans;-inkscape-font-specification:Sans"
         id="flowPara7709">  ATRE.PAK</flowPara><flowPara
         style="font-size:28px;font-style:normal;font-variant:normal;font-weight:normal;font-stretch:normal;font-family:Sans;-inkscape-font-specification:Sans"
         id="flowPara7653">  DUNE.PAK</flowPara><flowPara
         style="font-size:28px;font-style:normal;font-variant:normal;font-weight:normal;font-stretch:normal;font-family:Sans;-inkscape-font-specification:Sans"
         id="flowPara7655">  ENGLISH.PAK</flowPara><flowPara
         style="font-size:28px;font-style:normal;font-variant:normal;font-weight:normal;font-stretch:normal;font-family:Sans;-inkscape-font-specification:Sans"
         id="flowPara7661">  FINALE.PAK</flowPara><flowPara
         style="font-size:28px;font-style:normal;font-variant:normal;font-weight:normal;font-stretch:normal;font-family:Sans;-inkscape-font-specification:Sans"
         id="flowPara7663">  HARK.PAK</flowPara><flowPara
         style="font-size:28px;font-style:normal;font-variant:normal;font-weight:normal;font-stretch:normal;font-family:Sans;-inkscape-font-specification:Sans"
         id="flowPara7667">  INTRO.PAK</flowPara><flowPara
         style="font-size:28px;font-style:normal;font-variant:normal;font-weight:normal;font-stretch:normal;font-family:Sans;-inkscape-font-specification:Sans"
         id="flowPara7713">  INTROVOC.PAK</flowPara><flowPara
         style="font-size:28px;font-style:normal;font-variant:normal;font-weight:normal;font-stretch:normal;font-family:Sans;-inkscape-font-specification:Sans"
         id="flowPara7669">  MENTAT.PAK</flowPara><flowPara
         style="font-size:28px;font-style:normal;font-variant:normal;font-weight:normal;font-stretch:normal;font-family:Sans;-inkscape-font-specification:Sans"
         id="flowPara7693">  MERC.PAK</flowPara><flowPara
         style="font-size:28px;font-style:normal;font-variant:normal;font-weight:normal;font-stretch:normal;font-family:Sans;-inkscape-font-specification:Sans"
         id="flowPara7695">  ORDOS.PAK</flowPara><flowPara
         style="font-size:28px;font-style:normal;font-variant:normal;font-weight:normal;font-stretch:normal;font-family:Sans;-inkscape-font-specification:Sans"
         id="flowPara2968">  SCENARIO.PAK</flowPara><flowPara
         style="font-size:28px;font-style:normal;font-variant:normal;font-weight:normal;font-stretch:normal;font-family:Sans;-inkscape-font-specification:Sans"
         id="flowPara7703">  SOUND.PAK</flowPara><flowPara
         style="font-size:28px;font-style:normal;font-variant:normal;font-weight:normal;font-stretch:normal;font-family:Sans;-inkscape-font-specification:Sans"
         id="flowPara7707">  VOC.PAK</flowPara><flowPara
         style="font-size:20px;font-style:normal;font-variant:normal;font-weight:normal;font-stretch:normal;font-family:Sans;-inkscape-font-specification:Sans"
         id="flowPara7751"> </flowPara><flowPara
         style="font-size:32px;font-style:normal;font-variant:normal;font-weight:normal;font-stretch:normal;font-family:Sans;-inkscape-font-specification:Sans"
         id="flowPara7761">And if you like the following</flowPara><flowPara
         style="font-size:32px;font-style:normal;font-variant:normal;font-weight:normal;font-stretch:normal;font-family:Sans;-inkscape-font-specification:Sans"
         id="flowPara8049">additional language files:</flowPara><flowPara
         style="font-size:20px;font-style:normal;font-variant:normal;font-weight:normal;font-stretch:normal;font-family:Sans;-inkscape-font-specification:Sans"
         id="flowPara7763"> </flowPara><flowPara
         style="font-size:28px;font-style:normal;font-variant:normal;font-weight:normal;font-stretch:normal;font-family:Sans;-inkscape-font-specification:Sans"
         id="flowPara7753">  GERMAN.PAK</flowPara><flowPara
         style="font-size:28px;font-style:normal;font-variant:normal;font-weight:normal;font-stretch:normal;font-family:Sans;-inkscape-font-specification:Sans"
         id="flowPara7741">  FRENCH.PAK</flowPara><flowPara
         style="font-size:28px;font-style:normal;font-variant:normal;font-weight:normal;font-stretch:normal;font-family:Sans;-inkscape-font-specification:Sans"
         id="flowPara7749" /><flowPara
         style="font-style:normal;font-variant:normal;font-weight:normal;font-stretch:normal;font-family:Sans;-inkscape-font-specification:Sans"
         id="flowPara7675" /><flowPara
         style="font-style:normal;font-variant:normal;font-weight:normal;font-stretch:normal;font-family:Sans;-inkscape-font-specification:Sans"
         id="flowPara7677" /><flowPara
         style="font-style:normal;font-variant:normal;font-weight:normal;font-stretch:normal;font-family:Sans;-inkscape-font-specification:Sans"
         id="flowPara7679" /><flowPara
         style="font-style:normal;font-variant:normal;font-weight:normal;font-stretch:normal;font-family:Sans;-inkscape-font-specification:Sans"
         id="flowPara7681" /><flowPara
         style="font-style:normal;font-variant:normal;font-weight:normal;font-stretch:normal;font-family:Sans;-inkscape-font-specification:Sans"
         id="flowPara7683" /><flowPara
         style="font-style:normal;font-variant:normal;font-weight:normal;font-stretch:normal;font-family:Sans;-inkscape-font-specification:Sans"
         id="flowPara7685" /><flowPara
         style="font-style:normal;font-variant:normal;font-weight:normal;font-stretch:normal;font-family:Sans;-inkscape-font-specification:Sans"
         id="flowPara7687" /><flowPara
         style="font-style:normal;font-variant:normal;font-weight:normal;font-stretch:normal;font-family:Sans;-inkscape-font-specification:Sans"
         id="flowPara7689" /></flowRoot>    <g
       id="g8051"
       transform="matrix(0.40643945,0,0,0.40643945,-361.01094,632.30138)">
      <rect
         rx="25.011187"
         ry="25.011187"
         transform="matrix(0.39982109,0,0,0.39982109,0.80577395,388.06756)"
         y="-418.89548"
         x="-614.64825"
         height="108.02724"
         width="518.14917"
         id="rect7715"
         style="fill:url(#linearGradient8065);fill-opacity:1;stroke:none" />
      <path
         transform="matrix(-0.10350293,-0.38096807,0.38627818,-0.10208009,106.49995,119.61882)"
         d="m -139.40104,-411.34885 -103.2285,104.97813 -39.29947,-141.88756 -39.29948,-141.88757 142.52797,36.90944 142.527973,36.90944 -103.228493,104.97812 z"
         inkscape:randomized="0"
         inkscape:rounded="0"
         inkscape:flatsided="false"
         sodipodi:arg2="1.8241926"
         sodipodi:arg1="0.776995"
         sodipodi:r2="170.006"
         sodipodi:r1="85.002998"
         sodipodi:cy="-470.94785"
         sodipodi:cx="-200.01019"
         sodipodi:sides="3"
         id="path7717"
         style="fill:url(#linearGradient8067);fill-opacity:1;stroke:none"
         sodipodi:type="star" />
    </g>
    <flowRoot
       transform="matrix(0.40643945,0,0,0.40643945,-364.29545,949.86254)"
       style="font-size:40px;font-style:normal;font-weight:normal;fill:#ffffff;fill-opacity:1;stroke:none;font-family:Bitstream Vera Sans"
       id="flowRoot7899"
       xml:space="preserve"><flowRegion
         id="flowRegion7901"><rect
           style="fill:#ffffff"
           y="-70.927444"
           x="-557.60419"
           height="131.31979"
           width="1109.1475"
           id="rect7903" /></flowRegion><flowPara
         style="font-size:48px;font-style:normal;font-variant:normal;font-weight:bold;font-stretch:normal;font-family:Sans;-inkscape-font-specification:Sans Bold"
         id="flowPara7905">2. Step:</flowPara><flowPara
         id="flowPara7963"
         style="font-size:32px;font-style:normal;font-variant:normal;font-weight:normal;font-stretch:normal;font-family:Sans;-inkscape-font-specification:Sans">Copy the Dune Legacy Application Bundle to the Application Folder</flowPara></flowRoot>    <g
       id="g8055"
       transform="matrix(0.40643945,0,0,0.40643945,-266.58079,933.17506)">
      <rect
         style="fill:url(#linearGradient8061);fill-opacity:1;stroke:none"
         id="rect8057"
         width="518.14917"
         height="108.02724"
         x="-614.64825"
         y="-418.89548"
         transform="matrix(0.39982109,0,0,0.39982109,0.80577395,388.06756)"
         ry="25.011187"
         rx="25.011187" />
      <path
         sodipodi:type="star"
         style="fill:url(#linearGradient8063);fill-opacity:1;stroke:none"
         id="path8059"
         sodipodi:sides="3"
         sodipodi:cx="-200.01019"
         sodipodi:cy="-470.94785"
         sodipodi:r1="85.002998"
         sodipodi:r2="170.006"
         sodipodi:arg1="0.776995"
         sodipodi:arg2="1.8241926"
         inkscape:flatsided="false"
         inkscape:rounded="0"
         inkscape:randomized="0"
         d="m -139.40104,-411.34885 -103.2285,104.97813 -39.29947,-141.88756 -39.29948,-141.88757 142.52797,36.90944 142.527973,36.90944 -103.228493,104.97812 z"
         transform="matrix(-0.10350293,-0.38096807,0.38627818,-0.10208009,106.49995,119.61882)" />
    </g>
    <path
       transform="matrix(0.46734422,0,0,0.46734422,48.277706,944.64016)"
       d="m -255.66845,269.51779 c 0.0916,2.1722 -87.61314,-79.73862 -88.90287,-77.9685 -1.49721,2.05489 52.78853,115.94212 51.99953,118.34152 -0.67966,2.06688 -56.77483,-100.13018 -58.67438,-98.99921 -2.20517,1.31294 10.53695,129.17084 9.02567,131.22677 -1.30184,1.771 -18.41254,-105.72802 -20.56077,-105.18972 -2.49384,0.6249 -37.43543,114.78239 -39.4848,116.24853 -1.76536,1.26294 20.0776,-101.83078 17.90975,-102.07409 -2.51663,-0.28246 -73.51343,100.97832 -75.92842,101.69608 -2.08031,0.61829 55.56738,-96.75654 53.53188,-97.58549 -2.36299,-0.96233 -103.85667,73.16247 -106.38711,72.98693 -2.17975,-0.15121 84.65986,-70.67107 83.05756,-72.14932 -1.86009,-1.71609 -114.99774,30.96548 -117.34634,30.01269 -2.02312,-0.82075 96.93288,-40.68844 95.89865,-42.6172 -1.20063,-2.23906 -127.68254,-0.71458 -129.54155,-2.41108 -1.60137,-1.46139 109.14227,-11.91991 108.81878,-14.07747 -0.37554,-2.50468 -115.07292,-42.94801 -116.28993,-45.19856 -1.04834,-1.93865 110.46462,26.00314 110.76422,23.84152 0.3478,-2.50939 -102.66326,-75.58891 -103.12533,-78.11169 -0.39803,-2.17315 96.31712,61.5396 97.37647,59.62142 1.22977,-2.22679 -66.40396,-114.734342 -66.02713,-117.231318 0.3246,-2.150924 62.6411,93.447378 64.26809,91.944938 1.88875,-1.74415 -23.0168,-122.015905 -21.85447,-124.298878 1.00125,-1.966579 29.82373,104.283208 31.83712,103.419478 2.33731,-1.00269 13.85094,-130.613628 15.68296,-132.3445562 1.57813,-1.4910421 5.24023,112.5995062 7.42475,112.4547162 2.53597,-0.16809 53.82122,-110.493312 56.16157,-111.5638029 2.016,-0.9221333 -40.03309,97.1223129 -37.91695,97.7438229 2.45659,0.72149 92.35067,-81.598154 94.86215,-81.841056 2.16341,-0.209239 -73.44485,78.965366 -71.58296,80.122476 2.16145,1.34327 113.37549,-53.710394 115.84671,-53.166149 2.12874,0.468819 -93.53008,63.837539 -92.15561,65.539649 1.59559,1.97596 123.49968,-22.926825 125.70977,-21.620787 1.90379,1.125036 -106.47937,27.909017 -105.74898,29.970717 0.8479,2.3934 124.78418,24.60425 126.37969,26.62346 1.37439,1.73938 -112.84254,-5.62318 -112.88902,-3.45268 -0.054,2.5197 112.46514,57.13301 113.27693,59.56087 0.69929,2.09138 -98.06543,-43.03318 -98.80977,-40.9661 -0.86408,2.39965 83.2878,98.9904 83.39414,101.51207 z"
       inkscape:randomized="0.024"
       inkscape:rounded="0.02"
       inkscape:flatsided="false"
       sodipodi:arg2="0.14483507"
       sodipodi:arg1="0.49980755"
       sodipodi:r2="72.88752"
       sodipodi:r1="174.94315"
       sodipodi:cy="181.61069"
       sodipodi:cx="-413.1524"
       sodipodi:sides="19"
       id="path2977"
       style="fill:#ffffff;fill-opacity:1;filter:url(#filter6941)"
       sodipodi:type="star" />
    <path
       sodipodi:type="star"
       style="fill:#ffffff;fill-opacity:1;filter:url(#filter6941)"
       id="path2979"
       sodipodi:sides="19"
       sodipodi:cx="-413.1524"
       sodipodi:cy="181.61069"
       sodipodi:r1="174.94315"
       sodipodi:r2="72.88752"
       sodipodi:arg1="0.49980755"
       sodipodi:arg2="0.14483507"
       inkscape:flatsided="false"
       inkscape:rounded="0.02"
       inkscape:randomized="0.024"
       d="m -255.66845,269.51779 c 0.0916,2.1722 -87.61314,-79.73862 -88.90287,-77.9685 -1.49721,2.05489 52.78853,115.94212 51.99953,118.34152 -0.67966,2.06688 -56.77483,-100.13018 -58.67438,-98.99921 -2.20517,1.31294 10.53695,129.17084 9.02567,131.22677 -1.30184,1.771 -18.41254,-105.72802 -20.56077,-105.18972 -2.49384,0.6249 -37.43543,114.78239 -39.4848,116.24853 -1.76536,1.26294 20.0776,-101.83078 17.90975,-102.07409 -2.51663,-0.28246 -73.51343,100.97832 -75.92842,101.69608 -2.08031,0.61829 55.56738,-96.75654 53.53188,-97.58549 -2.36299,-0.96233 -103.85667,73.16247 -106.38711,72.98693 -2.17975,-0.15121 84.65986,-70.67107 83.05756,-72.14932 -1.86009,-1.71609 -114.99774,30.96548 -117.34634,30.01269 -2.02312,-0.82075 96.93288,-40.68844 95.89865,-42.6172 -1.20063,-2.23906 -127.68254,-0.71458 -129.54155,-2.41108 -1.60137,-1.46139 109.14227,-11.91991 108.81878,-14.07747 -0.37554,-2.50468 -115.07292,-42.94801 -116.28993,-45.19856 -1.04834,-1.93865 110.46462,26.00314 110.76422,23.84152 0.3478,-2.50939 -102.66326,-75.58891 -103.12533,-78.11169 -0.39803,-2.17315 96.31712,61.5396 97.37647,59.62142 1.22977,-2.22679 -66.40396,-114.734342 -66.02713,-117.231318 0.3246,-2.150924 62.6411,93.447378 64.26809,91.944938 1.88875,-1.74415 -23.0168,-122.015905 -21.85447,-124.298878 1.00125,-1.966579 29.82373,104.283208 31.83712,103.419478 2.33731,-1.00269 13.85094,-130.613628 15.68296,-132.3445562 1.57813,-1.4910421 5.24023,112.5995062 7.42475,112.4547162 2.53597,-0.16809 53.82122,-110.493312 56.16157,-111.5638029 2.016,-0.9221333 -40.03309,97.1223129 -37.91695,97.7438229 2.45659,0.72149 92.35067,-81.598154 94.86215,-81.841056 2.16341,-0.209239 -73.44485,78.965366 -71.58296,80.122476 2.16145,1.34327 113.37549,-53.710394 115.84671,-53.166149 2.12874,0.468819 -93.53008,63.837539 -92.15561,65.539649 1.59559,1.97596 123.49968,-22.926825 125.70977,-21.620787 1.90379,1.125036 -106.47937,27.909017 -105.74898,29.970717 0.8479,2.3934 124.78418,24.60425 126.37969,26.62346 1.37439,1.73938 -112.84254,-5.62318 -112.88902,-3.45268 -0.054,2.5197 112.46514,57.13301 113.27693,59.56087 0.69929,2.09138 -98.06543,-43.03318 -98.80977,-40.9661 -0.86408,2.39965 83.2878,98.9904 83.39414,101.51207 z"
       transform="matrix(0.46325878,0,0,0.46325878,-305.95854,946.38931)" />
    <path
       sodipodi:type="star"
       style="fill:#ffffff;fill-opacity:1;filter:url(#filter6941)"
       id="path2969"
       sodipodi:sides="19"
       sodipodi:cx="-413.1524"
       sodipodi:cy="181.61069"
       sodipodi:r1="174.94315"
       sodipodi:r2="72.88752"
       sodipodi:arg1="0.49980755"
       sodipodi:arg2="0.14483507"
       inkscape:flatsided="false"
       inkscape:rounded="0.02"
       inkscape:randomized="0.024"
       d="m -255.66845,269.51779 c 0.0916,2.1722 -87.61314,-79.73862 -88.90287,-77.9685 -1.49721,2.05489 52.78853,115.94212 51.99953,118.34152 -0.67966,2.06688 -56.77483,-100.13018 -58.67438,-98.99921 -2.20517,1.31294 10.53695,129.17084 9.02567,131.22677 -1.30184,1.771 -18.41254,-105.72802 -20.56077,-105.18972 -2.49384,0.6249 -37.43543,114.78239 -39.4848,116.24853 -1.76536,1.26294 20.0776,-101.83078 17.90975,-102.07409 -2.51663,-0.28246 -73.51343,100.97832 -75.92842,101.69608 -2.08031,0.61829 55.56738,-96.75654 53.53188,-97.58549 -2.36299,-0.96233 -103.85667,73.16247 -106.38711,72.98693 -2.17975,-0.15121 84.65986,-70.67107 83.05756,-72.14932 -1.86009,-1.71609 -114.99774,30.96548 -117.34634,30.01269 -2.02312,-0.82075 96.93288,-40.68844 95.89865,-42.6172 -1.20063,-2.23906 -127.68254,-0.71458 -129.54155,-2.41108 -1.60137,-1.46139 109.14227,-11.91991 108.81878,-14.07747 -0.37554,-2.50468 -115.07292,-42.94801 -116.28993,-45.19856 -1.04834,-1.93865 110.46462,26.00314 110.76422,23.84152 0.3478,-2.50939 -102.66326,-75.58891 -103.12533,-78.11169 -0.39803,-2.17315 96.31712,61.5396 97.37647,59.62142 1.22977,-2.22679 -66.40396,-114.734342 -66.02713,-117.231318 0.3246,-2.150924 62.6411,93.447378 64.26809,91.944938 1.88875,-1.74415 -23.0168,-122.015905 -21.85447,-124.298878 1.00125,-1.966579 29.82373,104.283208 31.83712,103.419478 2.33731,-1.00269 13.85094,-130.613628 15.68296,-132.3445562 1.57813,-1.4910421 5.24023,112.5995062 7.42475,112.4547162 2.53597,-0.16809 53.82122,-110.493312 56.16157,-111.5638029 2.016,-0.9221333 -40.03309,97.1223129 -37.91695,97.7438229 2.45659,0.72149 92.35067,-81.598154 94.86215,-81.841056 2.16341,-0.209239 -73.44485,78.965366 -71.58296,80.122476 2.16145,1.34327 113.37549,-53.710394 115.84671,-53.166149 2.12874,0.468819 -93.53008,63.837539 -92.15561,65.539649 1.59559,1.97596 123.49968,-22.926825 125.70977,-21.620787 1.90379,1.125036 -106.47937,27.909017 -105.74898,29.970717 0.8479,2.3934 124.78418,24.60425 126.37969,26.62346 1.37439,1.73938 -112.84254,-5.62318 -112.88902,-3.45268 -0.054,2.5197 112.46514,57.13301 113.27693,59.56087 0.69929,2.09138 -98.06543,-43.03318 -98.80977,-40.9661 -0.86408,2.39965 83.2878,98.9904 83.39414,101.51207 z"
       transform="matrix(0.46734422,0,0,0.46734422,282.6331,599.16802)" />
    <path
       transform="matrix(0.46734422,0,0,0.46734422,282.6331,747.16802)"
       d="m -255.66845,269.51779 c 0.0916,2.1722 -87.61314,-79.73862 -88.90287,-77.9685 -1.49721,2.05489 52.78853,115.94212 51.99953,118.34152 -0.67966,2.06688 -56.77483,-100.13018 -58.67438,-98.99921 -2.20517,1.31294 10.53695,129.17084 9.02567,131.22677 -1.30184,1.771 -18.41254,-105.72802 -20.56077,-105.18972 -2.49384,0.6249 -37.43543,114.78239 -39.4848,116.24853 -1.76536,1.26294 20.0776,-101.83078 17.90975,-102.07409 -2.51663,-0.28246 -73.51343,100.97832 -75.92842,101.69608 -2.08031,0.61829 55.56738,-96.75654 53.53188,-97.58549 -2.36299,-0.96233 -103.85667,73.16247 -106.38711,72.98693 -2.17975,-0.15121 84.65986,-70.67107 83.05756,-72.14932 -1.86009,-1.71609 -114.99774,30.96548 -117.34634,30.01269 -2.02312,-0.82075 96.93288,-40.68844 95.89865,-42.6172 -1.20063,-2.23906 -127.68254,-0.71458 -129.54155,-2.41108 -1.60137,-1.46139 109.14227,-11.91991 108.81878,-14.07747 -0.37554,-2.50468 -115.07292,-42.94801 -116.28993,-45.19856 -1.04834,-1.93865 110.46462,26.00314 110.76422,23.84152 0.3478,-2.50939 -102.66326,-75.58891 -103.12533,-78.11169 -0.39803,-2.17315 96.31712,61.5396 97.37647,59.62142 1.22977,-2.22679 -66.40396,-114.734342 -66.02713,-117.231318 0.3246,-2.150924 62.6411,93.447378 64.26809,91.944938 1.88875,-1.74415 -23.0168,-122.015905 -21.85447,-124.298878 1.00125,-1.966579 29.82373,104.283208 31.83712,103.419478 2.33731,-1.00269 13.85094,-130.613628 15.68296,-132.3445562 1.57813,-1.4910421 5.24023,112.5995062 7.42475,112.4547162 2.53597,-0.16809 53.82122,-110.493312 56.16157,-111.5638029 2.016,-0.9221333 -40.03309,97.1223129 -37.91695,97.7438229 2.45659,0.72149 92.35067,-81.598154 94.86215,-81.841056 2.16341,-0.209239 -73.44485,78.965366 -71.58296,80.122476 2.16145,1.34327 113.37549,-53.710394 115.84671,-53.166149 2.12874,0.468819 -93.53008,63.837539 -92.15561,65.539649 1.59559,1.97596 123.49968,-22.926825 125.70977,-21.620787 1.90379,1.125036 -106.47937,27.909017 -105.74898,29.970717 0.8479,2.3934 124.78418,24.60425 126.37969,26.62346 1.37439,1.73938 -112.84254,-5.62318 -112.88902,-3.45268 -0.054,2.5197 112.46514,57.13301 113.27693,59.56087 0.69929,2.09138 -98.06543,-43.03318 -98.80977,-40.9661 -0.86408,2.39965 83.2878,98.9904 83.39414,101.51207 z"
       inkscape:randomized="0.024"
       inkscape:rounded="0.02"
       inkscape:flatsided="false"
       sodipodi:arg2="0.14483507"
       sodipodi:arg1="0.49980755"
       sodipodi:r2="72.88752"
       sodipodi:r1="174.94315"
       sodipodi:cy="181.61069"
       sodipodi:cx="-413.1524"
       sodipodi:sides="19"
       id="path2972"
       style="fill:#ffffff;fill-opacity:1;filter:url(#filter6941)"
       sodipodi:type="star" />
    <path
       sodipodi:type="star"
       style="fill:#ffffff;fill-opacity:1;filter:url(#filter6941)"
       id="path2974"
       sodipodi:sides="19"
       sodipodi:cx="-413.1524"
       sodipodi:cy="181.61069"
       sodipodi:r1="174.94315"
       sodipodi:r2="72.88752"
       sodipodi:arg1="0.49980755"
       sodipodi:arg2="0.14483507"
       inkscape:flatsided="false"
       inkscape:rounded="0.02"
       inkscape:randomized="0.024"
       d="m -255.66845,269.51779 c 0.0916,2.1722 -87.61314,-79.73862 -88.90287,-77.9685 -1.49721,2.05489 52.78853,115.94212 51.99953,118.34152 -0.67966,2.06688 -56.77483,-100.13018 -58.67438,-98.99921 -2.20517,1.31294 10.53695,129.17084 9.02567,131.22677 -1.30184,1.771 -18.41254,-105.72802 -20.56077,-105.18972 -2.49384,0.6249 -37.43543,114.78239 -39.4848,116.24853 -1.76536,1.26294 20.0776,-101.83078 17.90975,-102.07409 -2.51663,-0.28246 -73.51343,100.97832 -75.92842,101.69608 -2.08031,0.61829 55.56738,-96.75654 53.53188,-97.58549 -2.36299,-0.96233 -103.85667,73.16247 -106.38711,72.98693 -2.17975,-0.15121 84.65986,-70.67107 83.05756,-72.14932 -1.86009,-1.71609 -114.99774,30.96548 -117.34634,30.01269 -2.02312,-0.82075 96.93288,-40.68844 95.89865,-42.6172 -1.20063,-2.23906 -127.68254,-0.71458 -129.54155,-2.41108 -1.60137,-1.46139 109.14227,-11.91991 108.81878,-14.07747 -0.37554,-2.50468 -115.07292,-42.94801 -116.28993,-45.19856 -1.04834,-1.93865 110.46462,26.00314 110.76422,23.84152 0.3478,-2.50939 -102.66326,-75.58891 -103.12533,-78.11169 -0.39803,-2.17315 96.31712,61.5396 97.37647,59.62142 1.22977,-2.22679 -66.40396,-114.734342 -66.02713,-117.231318 0.3246,-2.150924 62.6411,93.447378 64.26809,91.944938 1.88875,-1.74415 -23.0168,-122.015905 -21.85447,-124.298878 1.00125,-1.966579 29.82373,104.283208 31.83712,103.419478 2.33731,-1.00269 13.85094,-130.613628 15.68296,-132.3445562 1.57813,-1.4910421 5.24023,112.5995062 7.42475,112.4547162 2.53597,-0.16809 53.82122,-110.493312 56.16157,-111.5638029 2.016,-0.9221333 -40.03309,97.1223129 -37.91695,97.7438229 2.45659,0.72149 92.35067,-81.598154 94.86215,-81.841056 2.16341,-0.209239 -73.44485,78.965366 -71.58296,80.122476 2.16145,1.34327 113.37549,-53.710394 115.84671,-53.166149 2.12874,0.468819 -93.53008,63.837539 -92.15561,65.539649 1.59559,1.97596 123.49968,-22.926825 125.70977,-21.620787 1.90379,1.125036 -106.47937,27.909017 -105.74898,29.970717 0.8479,2.3934 124.78418,24.60425 126.37969,26.62346 1.37439,1.73938 -112.84254,-5.62318 -112.88902,-3.45268 -0.054,2.5197 112.46514,57.13301 113.27693,59.56087 0.69929,2.09138 -98.06543,-43.03318 -98.80977,-40.9661 -0.86408,2.39965 83.2878,98.9904 83.39414,101.51207 z"
       transform="matrix(0.46734422,0,0,0.46734422,282.6331,899.16802)" />
  </g>
</svg>
